<?xml version="1.0" standalone="no"?>
<!DOCTYPE svg PUBLIC "-//W3C//DTD SVG 20010904//EN"
 "http://www.w3.org/TR/2001/REC-SVG-20010904/DTD/svg10.dtd">
<svg version="1.0" xmlns="http://www.w3.org/2000/svg"
 width="738.000000pt" height="664.000000pt" viewBox="0 0 738.000000 664.000000"
 preserveAspectRatio="xMidYMid meet">

<g transform="translate(0.000000,664.000000) scale(0.100000,-0.100000)"
fill="#000000" stroke="none">
<path d="M3125 5420 c66 -5 188 -11 270 -14 83 -3 174 -9 203 -12 31 -4 52 -2
52 3 0 10 -155 19 -470 27 -160 4 -165 4 -55 -4z"/>
<path d="M2930 5411 c0 -5 9 -7 20 -4 11 3 20 7 20 9 0 2 -9 4 -20 4 -11 0
-20 -4 -20 -9z"/>
<path d="M2888 5403 c7 -3 16 -2 19 1 4 3 -2 6 -13 5 -11 0 -14 -3 -6 -6z"/>
<path d="M3700 5391 c0 -10 100 -19 106 -10 2 4 -13 9 -34 13 -52 8 -72 7 -72
-3z"/>
<path d="M3846 5354 c-9 -8 -16 -20 -16 -26 0 -6 -2 -9 -5 -6 -3 3 -22 -10
-42 -28 -20 -18 -41 -30 -46 -27 -6 3 -7 1 -3 -5 3 -6 -3 -14 -16 -18 -60 -19
-233 -222 -312 -366 -29 -52 -43 -68 -64 -72 -15 -2 -57 -9 -94 -15 -160 -26
-198 -34 -198 -43 0 -6 8 -7 18 -3 9 4 42 9 72 12 30 2 62 7 70 10 8 3 48 8
89 10 40 2 93 8 118 12 51 10 152 0 244 -24 56 -15 82 -14 66 1 -8 9 -168 41
-244 50 -35 3 -63 11 -63 16 0 20 46 97 104 177 33 45 60 87 59 92 -2 5 1 8 5
6 10 -3 87 75 84 86 -1 4 9 12 23 17 14 5 25 13 25 18 0 5 18 18 40 31 22 12
40 26 40 32 0 5 5 9 10 9 12 0 73 41 78 52 2 4 10 4 18 1 8 -3 14 -1 14 4 0
16 -58 14 -74 -3z"/>
<path d="M2658 5333 c7 -3 16 -2 19 1 4 3 -2 6 -13 5 -11 0 -14 -3 -6 -6z"/>
<path d="M2611 5316 c-10 -12 -8 -13 8 -9 12 3 21 9 21 14 0 14 -16 11 -29 -5z"/>
<path d="M2575 5310 c-3 -5 -1 -10 4 -10 6 0 11 5 11 10 0 6 -2 10 -4 10 -3 0
-8 -4 -11 -10z"/>
<path d="M2415 5265 c-33 -13 -56 -24 -51 -24 18 -1 116 34 116 42 0 4 -1 7
-2 6 -2 0 -30 -11 -63 -24z"/>
<path d="M2300 5219 c0 -5 5 -7 10 -4 6 3 10 8 10 11 0 2 -4 4 -10 4 -5 0 -10
-5 -10 -11z"/>
<path d="M2238 5199 c-20 -11 -24 -29 -7 -29 5 0 7 5 3 12 -5 8 -2 9 10 5 9
-4 15 -3 11 2 -3 5 1 12 7 14 7 3 9 6 3 6 -5 0 -18 -4 -27 -10z"/>
<path d="M1519 5175 c-3 -20 3 -41 22 -79 10 -22 19 -44 19 -48 0 -5 5 -14 11
-21 5 -7 29 -42 52 -78 23 -36 59 -80 80 -98 20 -18 37 -36 37 -40 0 -3 -23
-31 -50 -61 -55 -61 -129 -189 -155 -265 -12 -37 -20 -116 -28 -297 -10 -220
-9 -259 7 -363 15 -102 15 -120 3 -139 -8 -12 -18 -36 -22 -54 -6 -29 -3 -37
30 -67 20 -19 42 -35 50 -35 7 0 15 -4 17 -8 5 -13 104 -82 117 -82 19 0 12
16 -11 29 -52 27 -144 99 -157 123 -21 36 0 104 36 121 l26 12 -24 5 c-22 5
-25 14 -38 105 -17 127 -2 557 22 646 25 89 153 280 198 294 10 4 26 18 33 33
8 15 29 42 48 59 74 73 110 101 92 71 -5 -7 0 -9 14 -6 12 3 22 3 24 -1 2 -4
14 -4 28 -1 l25 6 -33 21 -33 20 46 37 c25 21 43 42 40 47 -4 5 2 9 13 9 10 0
31 11 46 25 15 14 30 25 34 25 10 1 52 37 52 46 0 4 -9 -1 -20 -11 -11 -10
-20 -14 -20 -9 0 5 -4 4 -8 -1 -4 -6 -19 -16 -34 -24 -14 -7 -41 -27 -60 -44
-18 -17 -36 -31 -40 -29 -3 1 -20 -14 -36 -32 -31 -36 -43 -37 -117 -17 -22 6
-44 11 -50 12 -5 2 -16 9 -23 16 -7 7 -19 13 -26 13 -7 0 -26 11 -42 25 -16
14 -47 34 -69 45 -22 11 -35 20 -30 20 6 0 -5 10 -22 21 -18 12 -33 24 -33 28
0 11 -40 8 -41 -4z m152 -125 c32 -23 59 -43 59 -45 0 -21 -25 -53 -39 -48
-13 4 -13 2 2 -7 15 -9 25 -40 13 -40 -19 0 -36 16 -36 33 0 11 -3 17 -7 14
-8 -8 -73 98 -73 119 0 22 17 17 81 -26z m199 -95 c10 -12 9 -16 -3 -21 -17
-6 -57 12 -57 26 0 16 46 12 60 -5z m-50 -64 c0 -13 -49 -55 -56 -48 -4 4 -2
13 4 20 7 8 9 17 6 20 -4 3 -4 13 0 22 4 13 10 14 26 5 11 -6 20 -14 20 -19z"/>
<path d="M3711 4720 c-25 -17 -52 -37 -60 -45 -9 -8 -52 -44 -96 -79 -115 -92
-146 -124 -192 -202 -54 -89 -126 -160 -173 -167 -19 -3 -53 -13 -75 -23 -22
-9 -50 -18 -62 -20 -12 -1 -46 -15 -75 -30 -29 -15 -63 -32 -75 -38 -23 -11
-32 -36 -12 -36 5 0 49 16 97 36 48 20 124 47 170 59 46 13 88 28 95 33 7 6
14 10 17 10 3 -1 29 5 58 12 30 7 66 13 80 14 15 2 47 8 71 15 25 7 81 11 132
9 49 -2 90 1 92 5 5 15 161 21 185 8 28 -15 21 -27 -21 -37 -43 -9 -117 -45
-140 -67 -10 -10 -22 -16 -25 -12 -4 3 0 10 8 15 10 7 -1 10 -37 10 -29 0 -53
-4 -53 -8 0 -5 -9 -19 -20 -32 -11 -13 -20 -31 -20 -41 0 -13 -20 -29 -62 -50
-54 -27 -62 -29 -70 -15 -14 26 -29 19 -18 -8 8 -21 4 -29 -26 -55 -19 -17
-43 -31 -54 -31 -10 0 -22 -5 -25 -10 -4 -6 -7 -67 -8 -135 -1 -68 -5 -127
-10 -131 -4 -4 -31 0 -61 9 -72 23 -122 21 -182 -7 -62 -29 -124 -87 -124
-115 0 -22 15 -53 39 -83 13 -16 10 -19 -25 -34 -71 -30 -136 -46 -153 -37 -9
4 -41 8 -71 8 -38 0 -54 4 -53 12 2 8 -4 10 -15 6 -12 -4 -9 3 10 23 33 36 48
74 48 123 0 46 -18 101 -33 101 -6 0 -7 3 -4 6 10 10 -30 42 -69 54 -54 18
-64 6 -16 -19 51 -26 66 -56 76 -149 l7 -64 -59 -56 c-32 -31 -75 -78 -96
-104 -26 -34 -48 -50 -75 -58 -55 -14 -153 2 -238 39 -52 23 -95 32 -178 41
-124 12 -206 30 -265 59 -25 12 -42 15 -46 9 -4 -6 0 -14 7 -19 38 -25 226
-64 328 -68 37 -1 73 -12 113 -32 136 -69 261 -76 340 -19 24 17 58 51 76 76
28 38 35 43 52 34 11 -6 20 -17 20 -25 0 -16 15 -20 23 -7 4 6 44 8 76 3 5 0
11 -10 14 -22 5 -20 6 -20 39 -3 18 9 43 25 56 35 13 10 29 16 37 13 7 -3 52
7 100 21 87 27 128 27 106 1 -6 -7 -7 -17 -3 -21 4 -5 1 -5 -5 -1 -16 9 -74
-80 -66 -100 9 -24 22 -16 44 28 12 23 31 55 43 71 19 26 25 28 63 22 27 -4
53 -16 71 -34 28 -28 28 -29 11 -67 -9 -22 -44 -81 -78 -133 -58 -88 -61 -97
-61 -153 0 -74 22 -76 30 -2 6 50 32 105 85 181 35 50 48 53 72 16 10 -16 26
-37 36 -48 11 -11 26 -30 34 -42 8 -12 44 -40 81 -62 37 -22 85 -57 107 -77
36 -34 38 -38 21 -48 -47 -28 -72 -55 -127 -138 -32 -49 -79 -117 -103 -151
-102 -144 -252 -418 -260 -474 -2 -16 -6 -35 -8 -43 -3 -8 -13 -41 -23 -72
-17 -55 -19 -57 -59 -63 -53 -9 -91 -32 -105 -62 -17 -37 -13 -88 9 -116 25
-32 25 -44 0 -57 -25 -13 -34 -48 -21 -81 l9 -26 -71 1 c-90 1 -160 -28 -216
-90 -48 -51 -56 -77 -47 -157 7 -65 23 -98 60 -122 28 -19 136 -60 216 -83 30
-9 64 -26 75 -38 18 -20 20 -21 33 -5 11 13 13 13 9 1 -4 -12 9 -15 70 -15 59
0 78 -4 88 -18 11 -15 14 -15 25 -2 7 8 21 15 30 15 10 0 21 6 23 13 3 6 6 7
6 2 1 -6 37 -8 102 -4 90 5 103 9 125 31 38 37 42 93 12 154 -14 27 -38 84
-53 127 -28 78 -28 79 -12 125 19 54 22 93 7 108 -7 7 -8 19 -1 37 11 28 -5
74 -40 113 -18 19 -18 24 -4 76 8 31 26 89 40 129 13 39 22 75 20 80 -3 4 5
18 17 30 13 12 16 19 8 14 -8 -4 -3 3 11 16 33 30 54 71 85 167 26 77 73 172
87 172 4 0 7 6 7 13 0 25 101 218 127 245 16 15 28 36 28 47 0 40 38 25 198
-82 176 -116 217 -155 200 -182 -6 -9 -20 -15 -32 -13 -24 4 -30 -23 -6 -32
12 -4 13 -11 5 -31 -13 -33 -13 -48 0 -40 6 3 10 15 10 25 0 30 21 29 90 -5
36 -18 112 -46 170 -63 140 -41 201 -69 290 -136 41 -31 87 -61 103 -68 15 -7
27 -16 27 -20 0 -13 153 -98 230 -127 91 -35 245 -65 484 -95 l179 -22 36 -36
c20 -19 78 -72 129 -116 80 -72 97 -82 130 -82 47 0 82 10 82 22 0 5 -13 7
-29 3 -35 -7 -58 6 -194 117 -78 64 -94 82 -90 99 8 28 -13 39 -62 33 -84 -12
-506 53 -638 97 -91 31 -137 57 -321 188 -123 87 -202 124 -345 162 -73 19
-202 78 -228 103 -10 9 -8 18 7 44 34 56 11 60 340 -61 96 -36 198 -75 225
-87 28 -12 101 -40 163 -61 63 -21 164 -65 225 -97 62 -33 129 -65 150 -72 20
-6 63 -28 95 -49 135 -89 165 -104 202 -107 22 -1 43 -5 48 -8 5 -3 17 0 26 7
16 11 16 18 6 56 -14 51 -8 71 20 71 25 0 57 15 86 41 45 41 213 44 294 6 l25
-12 -3 -210 c-2 -115 -6 -213 -9 -218 -5 -9 14 -26 28 -27 13 0 22 79 28 250
l6 175 46 1 c84 2 97 31 17 36 l-53 3 -7 40 c-3 22 -11 77 -17 122 -7 57 -20
101 -42 145 -31 62 -74 126 -94 140 -6 4 -6 8 -1 8 6 0 -3 13 -19 30 -53 55
-140 52 -206 -7 -66 -59 -98 -108 -114 -169 -17 -67 -38 -283 -38 -391 0 -40
-4 -73 -9 -73 -16 0 -71 32 -163 93 -49 33 -115 70 -145 82 -30 12 -102 45
-160 73 -58 27 -139 61 -180 75 -41 14 -113 41 -160 60 -78 32 -148 58 -332
123 -37 13 -80 31 -95 41 -38 25 -91 44 -137 50 -64 9 -68 18 -67 156 l2 123
-32 40 c-17 21 -38 52 -46 67 -8 16 -43 61 -78 101 -35 40 -72 91 -84 114 -11
22 -25 43 -31 47 -5 3 -10 15 -10 26 0 15 7 19 33 19 17 0 66 10 107 21 41 11
85 23 98 26 25 6 86 62 77 71 -3 3 1 15 9 27 13 20 12 24 -10 48 -14 15 -28
27 -33 27 -14 0 -50 93 -56 146 -9 71 -37 84 -184 84 -91 0 -110 -3 -124 -18
-16 -17 -14 -18 41 -11 97 12 178 10 191 -4 15 -19 -22 -53 -82 -73 -46 -15
-63 -34 -31 -34 23 0 114 41 114 52 0 5 10 8 22 6 36 -5 33 -36 -6 -75 -31
-31 -43 -36 -88 -38 -66 -3 -66 -3 -48 -15 8 -5 36 -10 62 -10 26 0 50 -5 54
-11 4 -7 24 -9 55 -6 45 6 50 4 75 -25 25 -30 25 -32 8 -45 -11 -8 -28 -13
-39 -12 -11 1 -41 -1 -67 -6 -66 -10 -50 -29 17 -20 55 6 76 -4 51 -24 -22
-18 -171 -51 -231 -51 -61 0 -75 13 -75 73 0 44 -24 126 -63 210 -23 52 -33
65 -39 53 -5 -9 -18 -16 -28 -16 -10 0 -31 -5 -45 -12 -19 -9 -28 -9 -37 0
-13 13 -116 16 -134 4 -6 -4 -16 -17 -22 -28 -10 -19 -18 -21 -59 -16 -26 3
-52 10 -56 16 -8 11 -2 99 10 160 4 21 3 27 -5 22 -7 -4 -12 -1 -12 7 0 15
111 107 129 107 6 0 11 4 11 9 0 4 28 25 61 46 51 32 65 36 80 27 27 -17 43
-15 91 11 53 27 145 29 214 2 46 -17 71 -17 190 1 41 6 42 6 68 -39 34 -58 53
-74 68 -59 8 8 7 13 -5 18 -9 3 -17 14 -17 24 0 10 -36 57 -80 104 -45 46 -76
87 -71 91 6 3 39 3 74 -1 70 -7 89 3 60 31 -14 14 -29 16 -77 12 -70 -6 -174
11 -258 42 -63 23 -126 26 -231 11 -37 -6 -114 -14 -170 -19 -56 -5 -110 -12
-119 -16 -30 -12 -21 19 27 97 57 92 67 104 137 157 32 24 55 47 52 52 -3 5 1
9 8 9 7 0 39 24 70 53 31 28 63 54 70 56 30 8 44 8 59 0 12 -6 19 -2 27 16 13
28 -2 34 -17 8 -9 -16 -10 -16 -11 5 0 31 -25 28 -79 -8z m377 -555 c54 -52
51 -58 -39 -74 -38 -6 -69 -6 -95 1 -22 5 -65 16 -97 23 -81 19 -92 24 -80 36
22 22 150 59 206 59 55 0 60 -2 105 -45z m-413 -15 c-3 -5 -11 -10 -16 -10 -6
0 -7 5 -4 10 3 6 11 10 16 10 6 0 7 -4 4 -10z m-63 -482 c21 -23 41 -52 44
-65 4 -14 14 -23 25 -23 15 0 19 7 19 40 0 42 13 51 42 28 23 -18 57 -151 57
-221 0 -54 -2 -58 -22 -55 -20 3 -33 20 -56 80 -17 44 -41 26 -41 -31 l-1 -46
-32 36 c-34 39 -76 88 -77 92 0 1 -3 13 -7 25 -5 20 -11 23 -34 18 -19 -3 -29
-1 -33 10 -6 15 16 123 29 143 13 23 49 10 87 -31z m-379 -5 c4 -2 5 -13 2
-24 -8 -24 14 -25 55 -4 31 16 34 15 64 -30 13 -18 14 -18 9 9 l-6 29 47 -5
c26 -3 49 -8 52 -11 3 -3 7 -37 9 -75 l4 -70 -60 -26 c-64 -28 -89 -32 -89
-16 0 6 -18 10 -41 10 -44 0 -124 16 -151 31 -10 5 -29 9 -42 9 -34 0 -56 10
-56 25 0 7 -10 19 -22 28 -22 14 -22 17 -8 44 14 25 89 73 137 86 19 5 82 -1
96 -10z m323 -211 c7 -1 30 -31 53 -67 42 -68 53 -75 82 -49 12 11 27 13 53 8
46 -8 63 -24 76 -73 5 -20 21 -47 35 -59 14 -12 25 -26 25 -32 0 -16 87 -154
113 -178 18 -17 41 -25 78 -28 85 -8 80 1 73 -131 -4 -65 -10 -122 -14 -126
-4 -5 -18 -3 -31 3 -25 13 -190 121 -199 130 -23 24 -92 70 -104 70 -27 0 -86
33 -92 52 -5 18 -14 22 -46 19 -32 -4 -55 18 -108 102 -60 95 -88 117 -152
117 -42 0 -45 2 -65 44 -27 55 -22 118 12 140 66 43 149 66 211 58z m347 -179
c17 -29 37 -53 44 -53 7 0 13 -8 13 -18 0 -10 23 -40 51 -67 50 -49 69 -80 74
-120 2 -15 -3 -21 -16 -21 -11 0 -19 3 -19 7 0 4 -9 9 -19 12 -11 3 -32 28
-48 57 -15 29 -48 82 -72 119 -47 72 -71 121 -71 147 0 25 25 1 63 -63z m-417
-130 c39 -42 42 -53 16 -53 -21 0 -102 55 -102 68 0 36 48 27 86 -15z m198
-238 c25 -20 46 -41 46 -48 0 -7 -16 -41 -36 -77 -20 -36 -60 -119 -89 -185
-75 -169 -116 -253 -149 -305 -52 -81 -105 -203 -129 -300 -20 -82 -27 -95
-46 -98 -32 -5 -22 -36 14 -42 33 -6 62 -47 52 -74 -5 -13 -15 -15 -49 -10
-24 4 -50 10 -59 15 -19 9 -48 -6 -34 -19 10 -8 66 -26 115 -36 33 -7 56 -42
39 -62 -6 -8 -22 -14 -34 -14 -16 0 -26 -9 -35 -30 -15 -35 -8 -34 -107 -14
-134 27 -151 33 -174 65 -12 17 -27 28 -35 25 -37 -14 -26 59 11 76 19 9 29 7
49 -5 28 -19 71 -28 92 -20 23 8 16 20 -15 26 -16 3 -36 13 -44 22 -9 8 -28
15 -43 15 -66 0 -98 87 -53 144 20 26 57 34 75 17 16 -17 40 12 62 77 12 34
22 83 22 108 0 36 11 67 54 147 165 312 393 637 446 637 4 0 28 -16 54 -35z
m2280 -178 c5 4 6 1 2 -5 -3 -6 7 -32 23 -59 59 -95 101 -192 107 -247 6 -53
6 -56 -15 -56 -13 0 -52 12 -87 26 -107 42 -219 50 -255 18 -31 -28 -39 -17
-39 59 0 87 25 146 94 219 49 52 63 57 121 47 22 -4 44 -5 49 -2z m-13 -363
c114 -40 147 -45 154 -23 4 11 11 19 16 19 12 0 12 -13 0 -25 -5 -6 -11 -21
-13 -35 -2 -16 -9 -24 -18 -22 -154 35 -275 19 -354 -45 -22 -18 -31 -21 -42
-12 -37 30 15 148 76 172 26 11 104 -2 181 -29z m-3019 -746 c13 -14 17 -31
13 -57 -2 -20 -7 -89 -10 -154 -7 -142 -15 -167 -47 -160 -63 14 -181 57 -210
76 -37 25 -56 78 -57 160 -1 42 4 53 37 88 50 54 126 81 202 74 38 -4 60 -12
72 -27z m161 -41 c26 -30 29 -31 42 -14 13 18 33 17 171 -9 16 -3 27 -20 44
-71 12 -38 32 -86 43 -108 31 -62 38 -96 27 -131 -13 -38 -34 -44 -166 -44
-111 0 -100 -19 -110 193 -5 115 -9 147 -20 147 -22 0 -26 -38 -22 -197 l3
-148 -24 -3 c-13 -2 -44 2 -67 8 -42 12 -44 15 -44 49 1 79 19 338 26 354 10
27 63 12 97 -26z"/>
<path d="M2995 4730 c3 -5 8 -10 11 -10 2 0 4 5 4 10 0 6 -5 10 -11 10 -5 0
-7 -4 -4 -10z"/>
<path d="M2902 4680 c-7 -11 -17 -19 -24 -17 -11 2 -70 -74 -62 -82 8 -8 34
22 34 41 0 10 4 17 8 14 10 -6 68 51 61 58 -3 3 -10 -4 -17 -14z"/>
<path d="M1859 4441 c-52 -10 -84 -52 -114 -146 -14 -44 -34 -102 -44 -130
-62 -167 -66 -187 -67 -306 0 -63 -4 -121 -8 -127 -4 -7 -3 -11 2 -10 5 2 26
-15 46 -37 81 -88 132 -138 158 -151 49 -25 157 -12 185 23 6 8 14 13 18 12 3
-1 29 11 56 25 35 20 55 39 71 69 23 46 37 59 53 50 5 -4 2 3 -7 14 -13 14
-18 38 -18 89 -1 38 -7 98 -15 134 -8 36 -14 108 -15 161 0 120 -19 179 -68
217 -20 15 -55 45 -78 68 -32 30 -52 41 -76 42 -26 0 -29 -2 -13 -8 11 -4 33
-19 48 -34 15 -14 29 -26 31 -26 2 0 24 -20 50 -45 39 -38 49 -56 61 -109 8
-35 14 -97 14 -137 -1 -41 6 -119 15 -173 31 -184 -2 -270 -127 -331 -100 -49
-135 -47 -193 8 l-44 42 -5 125 c-4 108 -29 270 -49 321 -4 9 2 40 13 70 11
30 27 81 37 114 9 33 27 84 41 113 21 44 29 52 52 52 18 0 28 5 28 15 0 8 -1
14 -1 14 -1 -1 -17 -4 -37 -8z m-143 -478 c3 -16 10 -41 15 -57 5 -16 9 -62 9
-102 0 -72 -1 -74 -25 -74 -18 0 -26 6 -29 23 -19 94 -13 237 10 237 8 0 16
-12 20 -27z m24 -259 c0 -17 -22 -14 -28 4 -2 7 3 12 12 12 9 0 16 -7 16 -16z"/>
<path d="M2445 3736 c-33 -6 -55 -14 -50 -18 6 -3 33 -2 60 4 28 5 56 10 63
11 6 0 12 4 12 9 0 9 -6 9 -85 -6z"/>
<path d="M4396 2648 c7 -10 74 -10 74 0 0 4 -18 7 -39 7 -22 0 -37 -3 -35 -7z"/>
<path d="M4496 2641 c-3 -5 8 -11 24 -13 24 -4 27 -2 19 9 -13 15 -35 17 -43
4z"/>
</g>
</svg>
